<?xml version="1.0" encoding="UTF-8" standalone="no"?>
<!-- Generator: Adobe Illustrator 25.2.3, SVG Export Plug-In . SVG Version: 6.00 Build 0)  -->

<svg
        version="1.1"
        id="Layer_1"
        x="0px"
        y="0px"
        viewBox="0 0 1000 1000"
        style="enable-background:new 0 0 1000 1000;"
        xml:space="preserve"
        sodipodi:docname="VINUPay-01.svg"
        inkscape:version="1.2.2 (b0a8486541, 2022-12-01)"
        xmlns:inkscape="http://www.inkscape.org/namespaces/inkscape"
        xmlns:sodipodi="http://sodipodi.sourceforge.net/DTD/sodipodi-0.dtd"
        xmlns="http://www.w3.org/2000/svg"
        xmlns:svg="http://www.w3.org/2000/svg"><defs
   id="defs29" /><sodipodi:namedview
        id="namedview27"
        pagecolor="#ffffff"
        bordercolor="#000000"
        borderopacity="0.25"
        inkscape:showpageshadow="2"
        inkscape:pageopacity="0.0"
        inkscape:pagecheckerboard="0"
        inkscape:deskcolor="#d1d1d1"
        showgrid="false"
        inkscape:zoom="1.027"
        inkscape:cx="463.97274"
        inkscape:cy="509.25024"
        inkscape:window-width="2560"
        inkscape:window-height="1371"
        inkscape:window-x="0"
        inkscape:window-y="32"
        inkscape:window-maximized="1"
        inkscape:current-layer="g24" />
  <style
          type="text/css"
          id="style2">
	.st0{fill:current;}
	.st1{fill:current;}
	.st2{fill:current;}
</style>
  <g
          id="g24">
	<path
            class="st0"
            d="m 500.00002,130.39885 c 50.23705,0 100.47411,18.96705 138.92083,57.41378 l 173.26657,173.26656 c 76.38082,76.38083 76.38082,200.94821 0,277.32903 L 638.92085,811.67485 c -38.44672,38.44661 -88.68378,57.41376 -138.92083,57.41376 -50.23706,0 -100.4741,-18.96715 -138.92083,-57.41376 L 187.81263,638.40822 c -76.38083,-76.38082 -76.38083,-200.9482 0,-277.32903 L 361.07919,187.81263 c 38.44673,-37.93411 88.68377,-57.41378 138.92083,-57.41378 m 0,-82.5323 c -74.33033,0 -144.55968,29.21951 -197.35985,81.50705 L 129.3736,302.64017 c -52.80017,52.80017 -81.50705,123.02952 -81.50705,197.35985 0,74.33034 29.21951,144.55969 81.50705,197.35984 l 173.26657,173.26655 c 52.80017,52.80014 122.5169,81.50704 197.35985,81.50704 74.33034,0 144.55969,-29.21946 197.35984,-81.50704 L 870.62644,697.35986 c 52.80016,-52.80015 81.50701,-122.51688 81.50701,-197.35984 0,-74.33033 -29.21947,-144.55968 -81.50701,-197.35985 L 697.35986,129.3736 C 644.04708,77.08606 574.33036,47.86655 500.00002,47.86655 Z"
            id="path4"
            style="stroke-width:5.12624" />
    <g
            id="g8"
            transform="matrix(5.1262298,0,0,5.1262298,-900.48598,-2063.1149)">
		<path
                class="st0"
                d="m 287.7,545.8 h -29 c -17.3,0 -31.3,-14.1 -31.3,-31.3 v -29 c 0,-17.3 14.1,-31.3 31.3,-31.3 h 29 c 17.3,0 31.3,14.1 31.3,31.3 v 29 c 0,17.3 -14.1,31.3 -31.3,31.3 z m -29.1,-75.5 c -8.4,0 -15.2,6.8 -15.2,15.2 v 29 c 0,8.4 6.8,15.2 15.2,15.2 h 29 c 8.4,0 15.2,-6.8 15.2,-15.2 v -29 c 0,-8.4 -6.8,-15.2 -15.2,-15.2 z"
                id="path6" />
	</g>







</g>
</svg>
