<?xml version="1.0" encoding="UTF-8" standalone="no"?>
<svg
   height="48"
   width="48"
   version="1.1"
   id="svg67"
   sodipodi:docname="verified.svg"
   inkscape:version="1.2.2 (b0a8486541, 2022-12-01)"
   xmlns:inkscape="http://www.inkscape.org/namespaces/inkscape"
   xmlns:sodipodi="http://sodipodi.sourceforge.net/DTD/sodipodi-0.dtd"
   xmlns="http://www.w3.org/2000/svg"
   xmlns:svg="http://www.w3.org/2000/svg">
  <defs
     id="defs71" />
  <sodipodi:namedview
     id="namedview69"
     pagecolor="#ffffff"
     bordercolor="#000000"
     borderopacity="0.25"
     inkscape:showpageshadow="2"
     inkscape:pageopacity="0.0"
     inkscape:pagecheckerboard="0"
     inkscape:deskcolor="#d1d1d1"
     showgrid="false"
     inkscape:zoom="32.000001"
     inkscape:cx="14.484374"
     inkscape:cy="26.531249"
     inkscape:window-width="2560"
     inkscape:window-height="1371"
     inkscape:window-x="0"
     inkscape:window-y="32"
     inkscape:window-maximized="1"
     inkscape:current-layer="svg67" />
  <path
     style="fill:#ffffff;stroke-width:0"
     d="m 25.158034,17.444177 c -0.871092,-0.160316 -1.757784,-0.214014 -2.638965,-0.295034 -0.719127,-0.06612 -1.44471,-0.117415 -2.166752,-0.117415 -0.808948,0 -1.588062,-0.01512 -2.383064,0.157525 -0.469567,0.101973 -0.908066,0.317196 -1.333908,0.530124 -0.286131,0.143069 -0.15182,0.03997 -0.454369,0.210887 -0.598289,0.33798 -1.181906,0.703861 -1.693516,1.166939 -0.591248,0.535163 -1.017456,1.236879 -1.378719,1.937401 -0.05534,0.107316 -0.271621,0.496451 -0.324243,0.624699 -0.317922,0.774811 -0.528345,1.600868 -0.528345,2.440176 0,0.312296 -0.01647,0.621207 0.03961,0.930385 0.05794,0.319429 0.168541,0.627401 0.301625,0.922094 0.740046,1.63872 2.11338,2.831751 3.612449,3.765894 0.361483,0.225258 0.840779,0.545061 1.232632,0.745621 0.69435,0.355386 1.445011,0.673797 2.176964,0.938843 0.193108,0.06993 0.394102,0.116006 0.58926,0.179989 0.248995,0.08163 0.492007,0.181463 0.742984,0.256786 0.956894,0.28718 1.95628,0.508653 2.95007,0.609844 1.526219,0.155404 3.074063,0.02342 4.582355,-0.227016 0.16346,-0.02714 1.247307,-0.213943 1.435982,-0.257105 0.747391,-0.170976 1.499502,-0.395858 2.223743,-0.64712 0.194428,-0.06745 1.122904,-0.415401 1.32962,-0.511514 0.990658,-0.460607 1.906066,-1.244382 2.431534,-2.210232 0.131982,-0.242594 0.27755,-0.658738 0.361385,-0.916323 0.230375,-0.707834 0.392326,-1.43721 0.479672,-2.176727 0.08774,-0.742842 0.09247,-1.49851 0.197986,-2.238712 0.02184,-0.153228 0.06797,-0.302116 0.09484,-0.454542 0.02874,-0.162973 0.04146,-0.328564 0.07192,-0.491225 0.06994,-0.373511 0.16982,-0.740686 0.234195,-1.115966 0.182604,-1.064507 0.225355,-2.302831 -0.412532,-3.236572 -0.610002,-0.892922 -1.688784,-1.236749 -2.660717,-1.561663 -0.414468,-0.138555 -0.831359,-0.270177 -1.260632,-0.356434 -0.525174,-0.105527 -1.062003,-0.176449 -1.589844,-0.268305 -0.740318,-0.128831 -1.476048,-0.222995 -2.222282,-0.30729 -0.74188,-0.0838 -0.348216,-0.06813 -1.058426,-0.126409 -0.595828,-0.04889 -1.208972,-0.04366 -1.806678,-0.0259 -1.434371,0.04262 -2.768492,0.411017 -4.075447,0.98103 -0.642586,0.280257 -1.307616,0.612366 -1.770558,1.158159 -0.748436,0.882381 -0.77741,2.826445 -0.440273,3.873976"
     id="path2437"
     inkscape:label="path2437" />
  <path
     d="m 12.656691,39.513151 -6.0000002,-1.25 q -0.9,-0.15 -1.45,-0.9 -0.55,-0.75 -0.4,-1.65 l 0.65,-5.8 -3.8,-4.45 q -0.6,-0.65 -0.6,-1.55 0,-0.9 0.6,-1.55 l 3.8,-4.4 -0.65,-5.8 q -0.15,-0.95 0.4,-1.675 0.55,-0.7250004 1.45,-0.9250004 l 6.0000002,-1.2 3,-5.2 q 0.45,-0.75 1.35,-1.1 0.9,-0.35 1.7,0.1 l 5.25,2.45 5.25,-2.45 q 0.8,-0.45 1.7,-0.15 0.9,0.3 1.35,1.1 l 3.05,5.25 5.95,1.2 q 0.9,0.2 1.45,0.9250004 0.55,0.725 0.45,1.675 l -0.7,5.8 3.8,4.4 q 0.6,0.65 0.6,1.55 0,0.9 -0.6,1.55 l -3.8,4.45 0.7,5.8 q 0.1,0.9 -0.45,1.65 -0.55,0.75 -1.45,0.9 l -5.95,1.25 -3.05,5.2 q -0.45,0.8 -1.35,1.1 -0.9,0.3 -1.7,-0.15 l -5.25,-2.45 -5.25,2.45 q -0.8,0.45 -1.7,0.1 -0.9,-0.35 -1.35,-1.1 z m 7.5,-10.2 q 0.7,0.7 1.65,0.7 0.95,0 1.65,-0.7 l 8.85,-8.75 q 0.5,-0.5 0.475,-1.225 -0.025,-0.725 -0.575,-1.275 -0.55,-0.55 -1.275,-0.525 -0.725,0.025 -1.325,0.575 l -7.8,7.75 -3.4,-3.65 q -0.55,-0.55 -1.325,-0.55 -0.775,0 -1.375,0.6 -0.55,0.6 -0.575,1.35 -0.025,0.75 0.575,1.3 z"
     id="path65"
     style="fill:#007aff;fill-opacity:1;stroke-width:0;stroke-dasharray:none" />
</svg>
